<svg width="30" height="30" viewBox="0 0 30 30" fill="none" xmlns="http://www.w3.org/2000/svg">
<g clip-path="url(#clip0_915_214)">
<path d="M15.0001 28.5667C15.525 28.5546 16.0288 28.3572 16.4222 28.0095C16.8157 27.6618 17.0735 27.1862 17.1501 26.6667H12.7667C12.8455 27.2003 13.1153 27.6871 13.5261 28.0366C13.937 28.3861 14.4607 28.5745 15.0001 28.5667Z" fill="#1F1F1F"/>
<path d="M27.375 23.4417L27.0916 23.1917C26.2878 22.4755 25.5843 21.6542 25 20.75C24.3618 19.5021 23.9793 18.1394 23.875 16.7417V12.625C23.8716 12.125 23.827 11.6261 23.7416 11.1334C22.3301 10.8432 21.0621 10.0742 20.1525 8.9565C19.2428 7.83881 18.7474 6.4411 18.75 5.00002V4.47502C17.8799 4.04684 16.9451 3.76528 15.9833 3.64169V2.59169C15.9833 2.29663 15.8661 2.01367 15.6574 1.80503C15.4488 1.5964 15.1658 1.47919 14.8708 1.47919C14.5757 1.47919 14.2928 1.5964 14.0841 1.80503C13.8755 2.01367 13.7583 2.29663 13.7583 2.59169V3.68335C11.6047 3.98715 9.63377 5.05981 8.20931 6.7033C6.78485 8.34679 6.00307 10.4501 6.00829 12.625V16.7417C5.90392 18.1394 5.52144 19.5021 4.88329 20.75C4.30903 21.652 3.61679 22.4731 2.82496 23.1917L2.54163 23.4417V25.7917H27.375V23.4417Z" fill="#1F1F1F"/>
<path d="M25 9.16665C27.3012 9.16665 29.1667 7.30117 29.1667 4.99998C29.1667 2.69879 27.3012 0.833313 25 0.833313C22.6989 0.833313 20.8334 2.69879 20.8334 4.99998C20.8334 7.30117 22.6989 9.16665 25 9.16665Z" fill="#FF0000"/>
</g>
<defs>
<clipPath id="clip0_915_214">
<rect width="30" height="30" fill="white"/>
</clipPath>
</defs>
</svg>
