<svg width="30" height="30" viewBox="0 0 30 30" fill="none" xmlns="http://www.w3.org/2000/svg">
<path d="M9.6875 3.125C9.6875 2.87636 9.58873 2.6379 9.41292 2.46209C9.2371 2.28627 8.99865 2.1875 8.75 2.1875C8.50136 2.1875 8.26291 2.28627 8.08709 2.46209C7.91128 2.6379 7.8125 2.87636 7.8125 3.125V5.1C6.0125 5.24375 4.8325 5.59625 3.965 6.465C3.09625 7.3325 2.74375 8.51375 2.59875 10.3125H27.4013C27.2563 8.5125 26.9038 7.3325 26.035 6.465C25.1675 5.59625 23.9863 5.24375 22.1875 5.09875V3.125C22.1875 2.87636 22.0887 2.6379 21.9129 2.46209C21.7371 2.28627 21.4986 2.1875 21.25 2.1875C21.0014 2.1875 20.7629 2.28627 20.5871 2.46209C20.4113 2.6379 20.3125 2.87636 20.3125 3.125V5.01625C19.4813 5 18.5488 5 17.5 5H12.5C11.4513 5 10.5188 5 9.6875 5.01625V3.125Z" fill="#00CA54"/>
<path fill-rule="evenodd" clip-rule="evenodd" d="M2.5 15C2.5 13.9513 2.5 13.0188 2.51625 12.1875H27.4837C27.5 13.0188 27.5 13.9513 27.5 15V17.5C27.5 22.2137 27.5 24.5712 26.035 26.035C24.5712 27.5 22.2137 27.5 17.5 27.5H12.5C7.78625 27.5 5.42875 27.5 3.965 26.035C2.5 24.5712 2.5 22.2137 2.5 17.5V15ZM21.25 17.5C21.5815 17.5 21.8995 17.3683 22.1339 17.1339C22.3683 16.8995 22.5 16.5815 22.5 16.25C22.5 15.9185 22.3683 15.6005 22.1339 15.3661C21.8995 15.1317 21.5815 15 21.25 15C20.9185 15 20.6005 15.1317 20.3661 15.3661C20.1317 15.6005 20 15.9185 20 16.25C20 16.5815 20.1317 16.8995 20.3661 17.1339C20.6005 17.3683 20.9185 17.5 21.25 17.5ZM21.25 22.5C21.5815 22.5 21.8995 22.3683 22.1339 22.1339C22.3683 21.8995 22.5 21.5815 22.5 21.25C22.5 20.9185 22.3683 20.6005 22.1339 20.3661C21.8995 20.1317 21.5815 20 21.25 20C20.9185 20 20.6005 20.1317 20.3661 20.3661C20.1317 20.6005 20 20.9185 20 21.25C20 21.5815 20.1317 21.8995 20.3661 22.1339C20.6005 22.3683 20.9185 22.5 21.25 22.5ZM16.25 16.25C16.25 16.5815 16.1183 16.8995 15.8839 17.1339C15.6495 17.3683 15.3315 17.5 15 17.5C14.6685 17.5 14.3505 17.3683 14.1161 17.1339C13.8817 16.8995 13.75 16.5815 13.75 16.25C13.75 15.9185 13.8817 15.6005 14.1161 15.3661C14.3505 15.1317 14.6685 15 15 15C15.3315 15 15.6495 15.1317 15.8839 15.3661C16.1183 15.6005 16.25 15.9185 16.25 16.25ZM16.25 21.25C16.25 21.5815 16.1183 21.8995 15.8839 22.1339C15.6495 22.3683 15.3315 22.5 15 22.5C14.6685 22.5 14.3505 22.3683 14.1161 22.1339C13.8817 21.8995 13.75 21.5815 13.75 21.25C13.75 20.9185 13.8817 20.6005 14.1161 20.3661C14.3505 20.1317 14.6685 20 15 20C15.3315 20 15.6495 20.1317 15.8839 20.3661C16.1183 20.6005 16.25 20.9185 16.25 21.25ZM8.75 17.5C9.08152 17.5 9.39946 17.3683 9.63388 17.1339C9.8683 16.8995 10 16.5815 10 16.25C10 15.9185 9.8683 15.6005 9.63388 15.3661C9.39946 15.1317 9.08152 15 8.75 15C8.41848 15 8.10054 15.1317 7.86612 15.3661C7.6317 15.6005 7.5 15.9185 7.5 16.25C7.5 16.5815 7.6317 16.8995 7.86612 17.1339C8.10054 17.3683 8.41848 17.5 8.75 17.5ZM8.75 22.5C9.08152 22.5 9.39946 22.3683 9.63388 22.1339C9.8683 21.8995 10 21.5815 10 21.25C10 20.9185 9.8683 20.6005 9.63388 20.3661C9.39946 20.1317 9.08152 20 8.75 20C8.41848 20 8.10054 20.1317 7.86612 20.3661C7.6317 20.6005 7.5 20.9185 7.5 21.25C7.5 21.5815 7.6317 21.8995 7.86612 22.1339C8.10054 22.3683 8.41848 22.5 8.75 22.5Z" fill="#00CA54"/>
</svg>
