<svg width="24" height="25" viewBox="0 0 24 25" fill="none" xmlns="http://www.w3.org/2000/svg">
<path d="M12 18C13.25 18 14.3127 17.5623 15.188 16.687C16.0633 15.8117 16.5007 14.7493 16.5 13.5C16.5 12.25 16.0623 11.1873 15.187 10.312C14.3117 9.43667 13.2493 8.99934 12 9.00001C10.75 9.00001 9.68734 9.43767 8.812 10.313C7.93667 11.1883 7.49934 12.2507 7.5 13.5C7.5 14.75 7.93767 15.8127 8.813 16.688C9.68833 17.5633 10.7507 18.0007 12 18ZM10.9 12.4L11.55 11C11.6333 10.8167 11.7833 10.725 12 10.725C12.2167 10.725 12.3667 10.8167 12.45 11L13.1 12.4L14.5 13.05C14.6833 13.1333 14.775 13.2833 14.775 13.5C14.775 13.7167 14.6833 13.8667 14.5 13.95L13.1 14.6L12.45 16C12.3667 16.1833 12.2167 16.275 12 16.275C11.7833 16.275 11.6333 16.1833 11.55 16L10.9 14.6L9.5 13.95C9.31667 13.8667 9.225 13.7167 9.225 13.5C9.225 13.2833 9.31667 13.1333 9.5 13.05L10.9 12.4ZM4 21.5C3.45 21.5 2.979 21.304 2.587 20.912C2.195 20.52 1.99934 20.0493 2 19.5V7.50001C2 6.95001 2.196 6.47901 2.588 6.08701C2.98 5.69501 3.45067 5.49934 4 5.50001H7.15L8.4 4.15001C8.58333 3.93334 8.80434 3.77067 9.063 3.66201C9.32167 3.55334 9.592 3.49934 9.874 3.50001H14.124C14.4073 3.50001 14.6783 3.55434 14.937 3.66301C15.1957 3.77167 15.4163 3.93401 15.599 4.15001L16.85 5.50001H20C20.55 5.50001 21.021 5.69601 21.413 6.08801C21.805 6.48001 22.0007 6.95067 22 7.50001V19.5C22 20.05 21.804 20.521 21.412 20.913C21.02 21.305 20.5493 21.5007 20 21.5H4ZM20 19.5V7.50001H4V19.5H20Z" fill="#8F918C"/>
</svg>
