<svg width="25" height="25" viewBox="0 0 25 25" fill="none" xmlns="http://www.w3.org/2000/svg">
<path d="M12.4998 4.16669C13.6049 4.16669 14.6647 4.60567 15.4461 5.38708C16.2275 6.16848 16.6665 7.22829 16.6665 8.33335C16.6665 9.43842 16.2275 10.4982 15.4461 11.2796C14.6647 12.061 13.6049 12.5 12.4998 12.5C11.3948 12.5 10.335 12.061 9.55356 11.2796C8.77216 10.4982 8.33317 9.43842 8.33317 8.33335C8.33317 7.22829 8.77216 6.16848 9.55356 5.38708C10.335 4.60567 11.3948 4.16669 12.4998 4.16669ZM12.4998 14.5834C17.104 14.5834 20.8332 16.4479 20.8332 18.75V20.8334H4.1665V18.75C4.1665 16.4479 7.89567 14.5834 12.4998 14.5834Z" fill="#3A3C38"/>
</svg>
