<svg width="20" height="20" viewBox="0 0 20 20" fill="none" xmlns="http://www.w3.org/2000/svg">
<g id="radix-icons:dashboard">
<path id="Vector" fill-rule="evenodd" clip-rule="evenodd" d="M3.7335 1.33331H3.66683C3.3615 1.33331 3.09883 1.33331 2.86683 1.38798C2.50768 1.4738 2.1793 1.65737 1.91807 1.91837C1.65684 2.17936 1.47297 2.50757 1.38683 2.86665C1.3335 3.09865 1.3335 3.35998 1.3335 3.66665V6.99998C1.3335 7.30531 1.3335 7.56798 1.38816 7.79998C1.47398 8.15913 1.65756 8.48751 1.91855 8.74874C2.17954 9.00996 2.50776 9.19384 2.86683 9.27998C3.09883 9.33331 3.36016 9.33331 3.66683 9.33331H7.00016C7.3055 9.33331 7.56816 9.33331 7.80016 9.27865C8.15931 9.19283 8.4877 9.00925 8.74892 8.74826C9.01015 8.48727 9.19402 8.15905 9.28016 7.79998C9.3335 7.56798 9.3335 7.30665 9.3335 6.99998V3.66665C9.3335 3.36131 9.3335 3.09865 9.27883 2.86665C9.19301 2.50749 9.00943 2.17911 8.74844 1.91789C8.48745 1.65666 8.15924 1.47279 7.80016 1.38665C7.56816 1.33331 7.30683 1.33331 7.00016 1.33331H3.7335ZM3.1775 2.68531C3.23483 2.67198 3.32416 2.66665 3.7335 2.66665H6.9335C7.34416 2.66665 7.43216 2.67065 7.4895 2.68531C7.60927 2.71395 7.71877 2.77521 7.80585 2.86229C7.89293 2.94937 7.95419 3.05887 7.98283 3.17865C7.99616 3.23465 8.00016 3.32265 8.00016 3.73331V6.93331C8.00016 7.34398 7.99616 7.43198 7.9815 7.48931C7.95285 7.60909 7.8916 7.71859 7.80452 7.80567C7.71743 7.89275 7.60794 7.954 7.48816 7.98265C7.4335 7.99465 7.3455 7.99998 6.9335 7.99998H3.7335C3.32283 7.99998 3.23483 7.99598 3.1775 7.98131C3.05772 7.95267 2.94822 7.89141 2.86114 7.80433C2.77406 7.71725 2.7128 7.60775 2.68416 7.48798C2.67216 7.43331 2.66683 7.34531 2.66683 6.93331V3.73331C2.66683 3.32265 2.67083 3.23465 2.6855 3.17731C2.71414 3.05754 2.7754 2.94804 2.86248 2.86096C2.94956 2.77388 3.05906 2.71262 3.17883 2.68398L3.1775 2.68531ZM13.0668 1.33331H13.0002C12.6948 1.33331 12.4322 1.33331 12.2002 1.38798C11.841 1.4738 11.5126 1.65737 11.2514 1.91837C10.9902 2.17936 10.8063 2.50757 10.7202 2.86665C10.6668 3.09865 10.6668 3.35998 10.6668 3.66665V6.99998C10.6668 7.30531 10.6668 7.56798 10.7215 7.79998C10.8073 8.15913 10.9909 8.48751 11.2519 8.74874C11.5129 9.00996 11.8411 9.19384 12.2002 9.27998C12.4322 9.33331 12.6935 9.33331 13.0002 9.33331H16.3335C16.6388 9.33331 16.9015 9.33331 17.1335 9.27865C17.4926 9.19283 17.821 9.00925 18.0823 8.74826C18.3435 8.48727 18.5274 8.15905 18.6135 7.79998C18.6668 7.56798 18.6668 7.30665 18.6668 6.99998V3.66665C18.6668 3.36131 18.6668 3.09865 18.6122 2.86665C18.5263 2.50749 18.3428 2.17911 18.0818 1.91789C17.8208 1.65666 17.4926 1.47279 17.1335 1.38665C16.9015 1.33331 16.6402 1.33331 16.3335 1.33331H13.0668ZM12.5108 2.68531C12.5682 2.67198 12.6575 2.66665 13.0668 2.66665H16.2668C16.6775 2.66665 16.7655 2.67065 16.8228 2.68531C16.9426 2.71395 17.0521 2.77521 17.1392 2.86229C17.2263 2.94937 17.2875 3.05887 17.3162 3.17865C17.3295 3.23465 17.3335 3.32265 17.3335 3.73331V6.93331C17.3335 7.34398 17.3282 7.43198 17.3148 7.48931C17.2862 7.60909 17.2249 7.71859 17.1378 7.80567C17.0508 7.89275 16.9413 7.954 16.8215 7.98265C16.7655 7.99598 16.6775 7.99998 16.2668 7.99998H13.0668C12.6562 7.99998 12.5682 7.99598 12.5108 7.98131C12.3911 7.95267 12.2816 7.89141 12.1945 7.80433C12.1074 7.71725 12.0461 7.60775 12.0175 7.48798C12.0055 7.43331 12.0002 7.34531 12.0002 6.93331V3.73331C12.0002 3.32265 12.0042 3.23465 12.0188 3.17731C12.0475 3.05754 12.1087 2.94804 12.1958 2.86096C12.2829 2.77388 12.3924 2.71262 12.5122 2.68398L12.5108 2.68531ZM3.66683 10.6666H7.00016C7.3055 10.6666 7.56816 10.6666 7.80016 10.7213C8.15931 10.8071 8.4877 10.9907 8.74892 11.2517C9.01015 11.5127 9.19402 11.8409 9.28016 12.2C9.3335 12.432 9.3335 12.6933 9.3335 13V16.3333C9.3335 16.6386 9.3335 16.9013 9.27883 17.1333C9.19301 17.4925 9.00943 17.8208 8.74844 18.0821C8.48745 18.3433 8.15924 18.5272 7.80016 18.6133C7.56816 18.6666 7.30683 18.6666 7.00016 18.6666H3.66683C3.3615 18.6666 3.09883 18.6666 2.86683 18.612C2.50768 18.5262 2.1793 18.3426 1.91807 18.0816C1.65684 17.8206 1.47297 17.4924 1.38683 17.1333C1.3335 16.9013 1.3335 16.64 1.3335 16.3333V13C1.3335 12.6946 1.3335 12.432 1.38816 12.2C1.47398 11.8408 1.65756 11.5124 1.91855 11.2512C2.17954 10.99 2.50776 10.8061 2.86683 10.72C3.09883 10.6666 3.36016 10.6666 3.66683 10.6666ZM3.7335 12C3.32283 12 3.23483 12.004 3.1775 12.0186C3.05772 12.0473 2.94822 12.1085 2.86114 12.1956C2.77406 12.2827 2.7128 12.3922 2.68416 12.512C2.67216 12.5666 2.66683 12.6546 2.66683 13.0666V16.2666C2.66683 16.6773 2.67083 16.7653 2.6855 16.8226C2.71414 16.9424 2.7754 17.0519 2.86248 17.139C2.94956 17.2261 3.05906 17.2873 3.17883 17.316C3.23483 17.3293 3.32283 17.3333 3.7335 17.3333H6.9335C7.34416 17.3333 7.43216 17.328 7.4895 17.3146C7.60927 17.286 7.71877 17.2247 7.80585 17.1377C7.89293 17.0506 7.95419 16.9411 7.98283 16.8213C7.99616 16.7653 8.00016 16.6773 8.00016 16.2666V13.0666C8.00016 12.656 7.99616 12.568 7.9815 12.5106C7.95285 12.3909 7.8916 12.2814 7.80452 12.1943C7.71743 12.1072 7.60794 12.046 7.48816 12.0173C7.4335 12.0053 7.3455 12 6.9335 12H3.7335ZM13.0668 10.6666H13.0002C12.6948 10.6666 12.4322 10.6666 12.2002 10.7213C11.841 10.8071 11.5126 10.9907 11.2514 11.2517C10.9902 11.5127 10.8063 11.8409 10.7202 12.2C10.6668 12.432 10.6668 12.6933 10.6668 13V16.3333C10.6668 16.6386 10.6668 16.9013 10.7215 17.1333C10.8073 17.4925 10.9909 17.8208 11.2519 18.0821C11.5129 18.3433 11.8411 18.5272 12.2002 18.6133C12.4322 18.668 12.6948 18.668 13.0002 18.668H16.3335C16.6388 18.668 16.9015 18.668 17.1335 18.6133C17.4924 18.5273 17.8205 18.3436 18.0815 18.0826C18.3425 17.8217 18.5261 17.4936 18.6122 17.1346C18.6668 16.9026 18.6668 16.64 18.6668 16.3346V13C18.6668 12.6946 18.6668 12.432 18.6122 12.2C18.5263 11.8408 18.3428 11.5124 18.0818 11.2512C17.8208 10.99 17.4926 10.8061 17.1335 10.72C16.9015 10.6666 16.6402 10.6666 16.3335 10.6666H13.0668ZM12.5108 12.0186C12.5682 12.0053 12.6575 12 13.0668 12H16.2668C16.6775 12 16.7655 12.004 16.8228 12.0186C16.9426 12.0473 17.0521 12.1085 17.1392 12.1956C17.2263 12.2827 17.2875 12.3922 17.3162 12.512C17.3295 12.568 17.3335 12.656 17.3335 13.0666V16.2666C17.3335 16.6773 17.3282 16.7653 17.3148 16.8226C17.2862 16.9424 17.2249 17.0519 17.1378 17.139C17.0508 17.2261 16.9413 17.2873 16.8215 17.316C16.7655 17.3293 16.6775 17.3333 16.2668 17.3333H13.0668C12.6562 17.3333 12.5682 17.328 12.5108 17.3146C12.3911 17.286 12.2816 17.2247 12.1945 17.1377C12.1074 17.0506 12.0461 16.9411 12.0175 16.8213C12.0055 16.7666 12.0002 16.6786 12.0002 16.2666V13.0666C12.0002 12.656 12.0042 12.568 12.0188 12.5106C12.0475 12.3909 12.1087 12.2814 12.1958 12.1943C12.2829 12.1072 12.3924 12.046 12.5122 12.0173L12.5108 12.0186Z" fill="#00CA54"/>
</g>
</svg>
