<svg width="142" height="142" viewBox="0 0 142 142" fill="none" xmlns="http://www.w3.org/2000/svg">
<path d="M10.2101 34.3178C18.3054 20.9022 30.6111 10.5413 45.2096 4.84974C59.8082 -0.841869 75.8794 -1.54449 90.919 2.85138C105.959 7.24724 119.121 16.4947 128.357 29.1526C137.592 41.8105 142.381 57.1678 141.976 72.8314L111.184 72.0369C111.413 63.1687 108.702 54.474 103.473 47.3076C98.2445 40.1412 90.7922 34.9057 82.2773 32.4169C73.7625 29.9281 64.6636 30.3259 56.3985 33.5483C48.1334 36.7706 41.1663 42.6366 36.5831 50.232L10.2101 34.3178Z" fill="#C6FFC6"/>
<path d="M142 71C142 86.8945 136.667 102.329 126.854 114.833C117.041 127.337 103.316 136.187 87.8774 139.965C72.4385 143.743 56.1782 142.232 41.7002 135.672C27.2222 129.113 15.3638 117.886 8.02385 103.787C0.683868 89.689 -1.71319 73.5355 1.21649 57.9133C4.14616 42.2911 12.2331 28.1037 24.1825 17.6228C36.1319 7.14195 51.2525 0.973769 67.1233 0.105913C82.9942 -0.761942 98.6972 3.72073 111.718 12.8362L94.0531 38.0699C86.6811 32.9091 77.7906 30.3712 68.8052 30.8625C59.8197 31.3539 51.259 34.846 44.4937 40.7799C37.7285 46.7138 33.1499 54.7461 31.4913 63.5908C29.8326 72.4355 31.1897 81.581 35.3453 89.5629C39.501 97.5448 46.2147 103.901 54.4116 107.615C62.6085 111.329 71.8144 112.184 80.5553 110.045C89.2963 107.906 97.0666 102.896 102.622 95.8167C108.178 88.7375 111.197 79.9989 111.197 71H142Z" fill="#00CA54"/>
<path d="M56.2986 78.2C55.1386 78.2 54.1319 78.0267 53.2786 77.68C52.4253 77.3333 51.7653 76.8467 51.2986 76.22C50.8319 75.58 50.5986 74.8333 50.5986 73.98C50.5986 73.1267 50.8253 72.4067 51.2786 71.82C51.7319 71.2333 52.3853 70.7867 53.2386 70.48C54.0919 70.1733 55.1119 70.02 56.2986 70.02C57.4853 70.02 58.5053 70.1733 59.3586 70.48C60.2253 70.7867 60.8853 71.24 61.3386 71.84C61.8053 72.4267 62.0386 73.14 62.0386 73.98C62.0386 74.8333 61.7986 75.58 61.3186 76.22C60.8519 76.8467 60.1853 77.3333 59.3186 77.68C58.4653 78.0267 57.4586 78.2 56.2986 78.2ZM56.2986 76.16C57.2586 76.16 58.0186 75.96 58.5786 75.56C59.1386 75.16 59.4186 74.6067 59.4186 73.9C59.4186 73.2067 59.1386 72.66 58.5786 72.26C58.0186 71.86 57.2586 71.66 56.2986 71.66C55.3386 71.66 54.5853 71.86 54.0386 72.26C53.4919 72.66 53.2186 73.2067 53.2186 73.9C53.2186 74.6067 53.4919 75.16 54.0386 75.56C54.5853 75.96 55.3386 76.16 56.2986 76.16ZM56.2986 71.38C55.2186 71.38 54.2919 71.24 53.5186 70.96C52.7453 70.6667 52.1453 70.2467 51.7186 69.7C51.3053 69.14 51.0986 68.4733 51.0986 67.7C51.0986 66.9 51.3119 66.2133 51.7386 65.64C52.1786 65.0533 52.7919 64.6 53.5786 64.28C54.3653 63.96 55.2719 63.8 56.2986 63.8C57.3386 63.8 58.2519 63.96 59.0386 64.28C59.8253 64.6 60.4386 65.0533 60.8786 65.64C61.3186 66.2133 61.5386 66.9 61.5386 67.7C61.5386 68.4733 61.3253 69.14 60.8986 69.7C60.4853 70.2467 59.8853 70.6667 59.0986 70.96C58.3119 71.24 57.3786 71.38 56.2986 71.38ZM56.2986 69.78C57.1253 69.78 57.7786 69.6067 58.2586 69.26C58.7386 68.9 58.9786 68.42 58.9786 67.82C58.9786 67.1933 58.7319 66.7067 58.2386 66.36C57.7453 66.0133 57.0986 65.84 56.2986 65.84C55.4986 65.84 54.8586 66.0133 54.3786 66.36C53.8986 66.7067 53.6586 67.1933 53.6586 67.82C53.6586 68.42 53.8919 68.9 54.3586 69.26C54.8386 69.6067 55.4853 69.78 56.2986 69.78ZM66.4455 78L72.2255 65.04L72.9055 66.2H64.9655L66.2055 64.94V68.58H63.7855V64H74.6655V65.74L69.2255 78H66.4455ZM78.633 78L88.193 64H90.153L80.593 78H78.633ZM79.793 71.54C79.1396 71.54 78.5596 71.38 78.053 71.06C77.5463 70.74 77.153 70.2933 76.873 69.72C76.593 69.1467 76.453 68.4733 76.453 67.7C76.453 66.9267 76.593 66.2533 76.873 65.68C77.153 65.1067 77.5463 64.66 78.053 64.34C78.5596 64.02 79.1396 63.86 79.793 63.86C80.473 63.86 81.0596 64.02 81.553 64.34C82.0596 64.66 82.453 65.1067 82.733 65.68C83.013 66.2533 83.153 66.9267 83.153 67.7C83.153 68.4733 83.013 69.1467 82.733 69.72C82.453 70.2933 82.0596 70.74 81.553 71.06C81.0596 71.38 80.473 71.54 79.793 71.54ZM79.813 70.14C80.3463 70.14 80.7596 69.9333 81.053 69.52C81.3596 69.0933 81.513 68.4867 81.513 67.7C81.513 66.9133 81.3596 66.3133 81.053 65.9C80.7596 65.4733 80.3463 65.26 79.813 65.26C79.2796 65.26 78.853 65.4733 78.533 65.9C78.2263 66.3267 78.073 66.9267 78.073 67.7C78.073 68.4733 78.2263 69.0733 78.533 69.5C78.853 69.9267 79.2796 70.14 79.813 70.14ZM88.973 78.14C88.3196 78.14 87.7396 77.98 87.233 77.66C86.7263 77.34 86.333 76.8933 86.053 76.32C85.773 75.7467 85.633 75.0733 85.633 74.3C85.633 73.5267 85.773 72.8533 86.053 72.28C86.333 71.7067 86.7263 71.26 87.233 70.94C87.7396 70.62 88.3196 70.46 88.973 70.46C89.653 70.46 90.2396 70.62 90.733 70.94C91.2396 71.26 91.633 71.7067 91.913 72.28C92.193 72.8533 92.333 73.5267 92.333 74.3C92.333 75.0733 92.193 75.7467 91.913 76.32C91.633 76.8933 91.2396 77.34 90.733 77.66C90.2396 77.98 89.653 78.14 88.973 78.14ZM88.973 76.74C89.5063 76.74 89.9263 76.5267 90.233 76.1C90.5396 75.6733 90.693 75.0733 90.693 74.3C90.693 73.5267 90.5396 72.9267 90.233 72.5C89.9263 72.0733 89.5063 71.86 88.973 71.86C88.453 71.86 88.033 72.0733 87.713 72.5C87.4063 72.9133 87.253 73.5133 87.253 74.3C87.253 75.0867 87.4063 75.6933 87.713 76.12C88.033 76.5333 88.453 76.74 88.973 76.74Z" fill="#3A3C38"/>
</svg>
