<svg width="142" height="142" viewBox="0 0 142 142" fill="none" xmlns="http://www.w3.org/2000/svg">
<path d="M142 71C142 86.8945 136.667 102.329 126.854 114.833C117.041 127.337 103.316 136.187 87.8774 139.965C72.4385 143.743 56.1782 142.232 41.7002 135.672C27.2222 129.113 15.3638 117.886 8.02385 103.787C0.683868 89.689 -1.71319 73.5355 1.21649 57.9133C4.14616 42.2911 12.2331 28.1037 24.1825 17.6228C36.1319 7.14195 51.2525 0.973769 67.1233 0.105913C82.9942 -0.761942 98.6972 3.72073 111.718 12.8362L94.0531 38.0699C86.6811 32.9091 77.7906 30.3712 68.8052 30.8625C59.8197 31.3539 51.259 34.846 44.4937 40.7799C37.7285 46.7138 33.1499 54.7461 31.4913 63.5908C29.8326 72.4355 31.1897 81.581 35.3453 89.5629C39.501 97.5448 46.2147 103.901 54.4116 107.615C62.6085 111.329 71.8144 112.184 80.5553 110.045C89.2963 107.906 97.0666 102.896 102.622 95.8167C108.178 88.7375 111.197 79.9989 111.197 71H142Z" fill="#00CA54"/>
</svg>
