<svg width="19" height="19" viewBox="0 0 19 19" fill="none" xmlns="http://www.w3.org/2000/svg">
<path fill-rule="evenodd" clip-rule="evenodd" d="M9.5 0C14.7467 0 19 4.25329 19 9.5C19 14.7467 14.7467 19 9.5 19C4.25329 19 0 14.7467 0 9.5C0 4.25329 4.25329 0 9.5 0ZM9.49992 1.10641C14.1353 1.10693 17.8926 4.86495 17.8922 9.50029C17.8919 14.1356 14.134 17.8931 9.49866 17.8929C4.86332 17.8927 1.10572 14.135 1.10572 9.49966C1.10579 7.27348 1.99022 5.13852 3.56445 3.56447C5.13869 1.99042 7.27375 1.10622 9.49992 1.10641ZM6.49465 5.37956C6.20102 5.37606 5.91824 5.49046 5.70964 5.69715C5.50104 5.90383 5.38403 6.18553 5.38481 6.47919C5.38481 7.09213 5.88171 7.58903 6.49465 7.58903C7.1076 7.58903 7.60449 7.09213 7.60449 6.47919C7.60527 6.18553 7.48827 5.90383 7.27966 5.69715C7.07106 5.49046 6.78829 5.37606 6.49465 5.37956ZM15.831 11.1365C15.3251 13.8701 12.6867 16.1525 9.49876 16.1525C6.33621 16.1525 3.71326 13.9034 3.1777 11.2006C3.06916 10.5261 3.62158 10.367 4.14195 10.4929C5.88272 10.9962 7.68799 11.2411 9.49995 11.2196C11.3078 11.2406 13.109 10.9966 14.8461 10.4953C15.3519 10.367 15.8937 10.5119 15.831 11.1365ZM14.1137 11.5158C14.0643 11.5348 14.0142 11.549 13.9636 11.5657C13.9584 11.568 14.1256 11.5134 14.1206 11.5158C12.6185 11.9293 11.0658 12.13 9.50787 12.1119C7.64872 12.1119 5.98598 11.9053 4.84171 11.4944C4.01212 11.2474 4.17124 12.2235 4.75431 12.5228C6.24593 13.2019 7.86882 13.544 9.50763 13.525C11.457 13.525 13.1941 13.0714 14.3415 12.4848C14.8844 12.1357 14.9917 11.1999 14.1137 11.5158ZM12.5115 5.37956C12.2179 5.37607 11.9351 5.49046 11.7264 5.69713C11.5178 5.90381 11.4007 6.18551 11.4015 6.47919C11.3956 6.87961 11.6059 7.25214 11.9517 7.45406C12.2975 7.65598 12.7253 7.65598 13.0711 7.45406C13.417 7.25214 13.6272 6.87961 13.6214 6.47919C13.6221 6.18555 13.5051 5.90389 13.2965 5.69722C13.0879 5.49055 12.8052 5.37613 12.5115 5.37956Z" fill="#424242"/>
</svg>
