<svg width="25" height="25" viewBox="0 0 25 25" fill="none" xmlns="http://www.w3.org/2000/svg">
<g clip-path="url(#clip0_915_155)">
<path d="M8.33328 11.2083H7.72911C6.90464 11.1785 6.08284 11.3185 5.31471 11.6195C4.54658 11.9206 3.84851 12.3763 3.26383 12.9583L3.09717 13.1528V18.9028H5.9305V15.6389L6.31245 15.2083L6.48606 15.0069C7.39017 14.0781 8.51576 13.3946 9.75689 13.0208C9.1355 12.548 8.64542 11.9241 8.33328 11.2083Z" fill="#767873"/>
<path d="M21.7639 12.9375C21.1793 12.3555 20.4812 11.8998 19.7131 11.5987C18.9449 11.2977 18.1231 11.1577 17.2987 11.1875C17.0458 11.1882 16.7931 11.2021 16.5417 11.2292C16.2237 11.9007 15.747 12.4846 15.1528 12.9306C16.4778 13.2971 17.6781 14.0173 18.6251 15.0139L18.7987 15.2084L19.1737 15.6389V18.9097H21.9098V13.132L21.7639 12.9375Z" fill="#767873"/>
<path d="M7.70829 9.85419H7.92356C7.82354 8.99533 7.97424 8.12588 8.35747 7.35078C8.74071 6.57569 9.3401 5.92808 10.0833 5.48614C9.81389 5.07458 9.44222 4.74003 9.00468 4.51527C8.56714 4.2905 8.07873 4.18322 7.58727 4.20394C7.09581 4.22465 6.61816 4.37264 6.20108 4.63341C5.784 4.89419 5.44179 5.25882 5.20798 5.69159C4.97416 6.12436 4.85674 6.61043 4.86722 7.10222C4.8777 7.594 5.01572 8.07463 5.26777 8.49704C5.51981 8.91946 5.87724 9.26917 6.30505 9.51194C6.73286 9.75471 7.21639 9.88222 7.70829 9.88197V9.85419Z" fill="#767873"/>
<path d="M16.9652 9.33335C16.9737 9.49296 16.9737 9.65291 16.9652 9.81252C17.0985 9.83365 17.2331 9.84525 17.368 9.84724H17.4999C17.9897 9.82113 18.4643 9.66865 18.8776 9.40466C19.2909 9.14066 19.6288 8.77415 19.8585 8.3408C20.0881 7.90744 20.2016 7.42201 20.1879 6.93178C20.1742 6.44154 20.0338 5.9632 19.7804 5.54332C19.527 5.12344 19.1692 4.77634 18.7418 4.5358C18.3144 4.29527 17.832 4.16949 17.3416 4.17072C16.8511 4.17196 16.3694 4.30016 15.9432 4.54284C15.517 4.78553 15.161 5.13443 14.9097 5.55558C15.5382 5.96595 16.055 6.52593 16.4138 7.18528C16.7726 7.84463 16.962 8.58272 16.9652 9.33335Z" fill="#767873"/>
<path d="M12.4097 12.4444C14.1241 12.4444 15.5139 11.0546 15.5139 9.34025C15.5139 7.62587 14.1241 6.23608 12.4097 6.23608C10.6953 6.23608 9.30554 7.62587 9.30554 9.34025C9.30554 11.0546 10.6953 12.4444 12.4097 12.4444Z" fill="#767873"/>
<path d="M12.5764 14.0972C11.6695 14.0606 10.7646 14.2078 9.91605 14.5301C9.06752 14.8523 8.29295 15.3429 7.63894 15.9722L7.46533 16.1667V20.5625C7.46804 20.7057 7.49893 20.8469 7.55624 20.9782C7.61355 21.1094 7.69616 21.2281 7.79934 21.3274C7.90252 21.4267 8.02426 21.5047 8.1576 21.557C8.29093 21.6092 8.43326 21.6347 8.57644 21.632H16.5556C16.6988 21.6347 16.8411 21.6092 16.9745 21.557C17.1078 21.5047 17.2295 21.4267 17.3327 21.3274C17.4359 21.2281 17.5185 21.1094 17.5758 20.9782C17.6331 20.8469 17.664 20.7057 17.6667 20.5625V16.1806L17.5001 15.9722C16.8503 15.3409 16.0784 14.849 15.2318 14.5266C14.3851 14.2041 13.4816 14.058 12.5764 14.0972Z" fill="#767873"/>
</g>
<defs>
<clipPath id="clip0_915_155">
<rect width="25" height="25" fill="white"/>
</clipPath>
</defs>
</svg>
