<svg width="28" height="29" viewBox="0 0 28 29" fill="none" xmlns="http://www.w3.org/2000/svg">
<path d="M11.4453 13.4991C11.4453 15.4083 12.6738 16.7531 14.4668 16.7531C16.2515 16.7531 17.48 15.4083 17.48 13.4991V8.27795C17.48 6.36047 16.2515 5.02405 14.4668 5.02405C12.6738 5.02405 11.4453 6.36047 11.4453 8.27795V13.4991ZM12.6987 13.4991V8.27795C12.6987 7.04944 13.4043 6.26086 14.4668 6.26086C15.5293 6.26086 16.2266 7.04944 16.2266 8.27795V13.4991C16.2266 14.7277 15.5293 15.5162 14.4668 15.5162C13.4043 15.5162 12.6987 14.7277 12.6987 13.4991ZM8.52344 13.798C8.52344 17.0519 10.6733 19.3346 13.8359 19.6002V21.5343H10.7563C10.4077 21.5343 10.1255 21.8165 10.1255 22.1652C10.1255 22.5138 10.4077 22.7877 10.7563 22.7877H18.1689C18.5176 22.7877 18.7998 22.5138 18.7998 22.1652C18.7998 21.8165 18.5176 21.5343 18.1689 21.5343H15.0894V19.6002C18.2603 19.3346 20.4019 17.0519 20.4019 13.798V12.1129C20.4019 11.7643 20.1279 11.4904 19.7793 11.4904C19.4307 11.4904 19.1484 11.7643 19.1484 12.1129V13.7482C19.1484 16.5787 17.3057 18.4547 14.4668 18.4547C11.6196 18.4547 9.77686 16.5787 9.77686 13.7482V12.1129C9.77686 11.7643 9.50293 11.4904 9.146 11.4904C8.79736 11.4904 8.52344 11.7643 8.52344 12.1129V13.798Z" fill="#8F918C"/>
</svg>
