<svg width="25" height="25" viewBox="0 0 25 25" fill="none" xmlns="http://www.w3.org/2000/svg">
<path d="M17.4479 21.3542L21.6146 18.75L17.4479 16.1458V21.3542ZM6.25 9.375H18.75V7.29167H6.25V9.375ZM18.75 23.9583C17.309 23.9583 16.0806 23.4504 15.0646 22.4344C14.0486 21.4184 13.541 20.1903 13.5417 18.75C13.5417 17.309 14.0497 16.0806 15.0656 15.0646C16.0816 14.0486 17.3097 13.541 18.75 13.5417C20.191 13.5417 21.4194 14.0497 22.4354 15.0656C23.4514 16.0816 23.959 17.3097 23.9583 18.75C23.9583 20.191 23.4503 21.4194 22.4344 22.4354C21.4184 23.4514 20.1903 23.959 18.75 23.9583ZM3.125 22.9167V5.20834C3.125 4.63542 3.32917 4.14479 3.7375 3.73646C4.14583 3.32813 4.63611 3.12431 5.20833 3.125H19.7917C20.3646 3.125 20.8552 3.32917 21.2635 3.7375C21.6719 4.14584 21.8757 4.63611 21.875 5.20834V12.1615C21.3889 11.9184 20.8809 11.7403 20.351 11.6271C19.8212 11.5139 19.2875 11.4576 18.75 11.4583H6.25V13.5417H13.6458C13.3507 13.8368 13.0774 14.158 12.826 14.5052C12.5747 14.8524 12.3531 15.2257 12.1615 15.625H6.25V17.7083H11.5365C11.5017 17.8819 11.4799 18.0514 11.4708 18.2167C11.4618 18.3819 11.4576 18.5597 11.4583 18.75C11.4583 19.4792 11.5583 20.1781 11.7583 20.8469C11.9583 21.5156 12.2576 22.1535 12.6562 22.7604L12.5 22.9167L10.9375 21.3542L9.375 22.9167L7.8125 21.3542L6.25 22.9167L4.6875 21.3542L3.125 22.9167Z" fill="#767873"/>
</svg>
