<svg width="216" height="216" viewBox="0 0 216 216" fill="none" xmlns="http://www.w3.org/2000/svg">
<path d="M169.802 124.194C165.919 138.688 157.103 151.374 144.873 160.069C132.643 168.764 117.765 172.922 102.799 171.828C87.8337 170.735 73.7177 164.458 62.8818 154.078C52.0459 143.697 45.1682 129.864 43.4328 114.959C41.6974 100.055 45.213 85.0112 53.3743 72.4193C61.5356 59.8273 73.8317 50.4749 88.1457 45.9723C102.46 41.4696 117.896 42.0986 131.796 47.7508C145.696 53.4031 157.191 63.7249 164.3 76.939L152.94 83.0512C147.252 72.4799 138.057 64.2224 126.937 59.7007C115.816 55.1789 103.468 54.6757 92.0166 58.2778C80.5654 61.8799 70.7284 69.3619 64.1994 79.4354C57.6704 89.509 54.8579 101.544 56.2462 113.467C57.6345 125.391 63.1367 136.458 71.8054 144.762C80.4742 153.066 91.7669 158.088 103.739 158.963C115.712 159.838 127.615 156.511 137.398 149.555C147.182 142.6 154.235 132.45 157.342 120.855L169.802 124.194Z" fill="#4C27FC"/>
<path d="M125.476 45.5556C133.611 47.9163 141.201 51.8561 147.813 57.1501C154.425 62.4441 159.93 68.9886 164.012 76.4099C168.095 83.8312 170.676 91.984 171.608 100.403C172.54 108.822 171.805 117.342 169.444 125.476L157.055 121.881C158.944 115.373 159.532 108.557 158.787 101.822C158.041 95.0872 155.976 88.5649 152.71 82.6279C149.444 76.6908 145.04 71.4553 139.75 67.2201C134.461 62.9849 128.389 59.8331 121.881 57.9445L125.476 45.5556Z" fill="#E2E3DD"/>
<circle cx="162.5" cy="123.5" r="11" fill="#4C27FC" stroke="#E2E3DD" stroke-width="3"/>
<path d="M201.531 54C214.093 75.7592 218.676 101.218 214.491 125.992C210.305 150.766 197.613 173.306 178.599 189.73C159.585 206.154 135.439 215.435 110.32 215.975C85.2003 216.515 60.6785 208.279 40.9768 192.687C21.275 177.095 7.62612 155.121 2.38023 130.549C-2.86566 105.978 0.619718 80.3457 12.2362 58.067C23.8528 35.7883 42.8735 18.2569 66.0234 8.49138C89.1733 -1.27415 115.004 -2.6627 139.067 4.56483L132.854 25.2519C113.603 19.4698 92.9387 20.5807 74.4187 28.3931C55.8988 36.2055 40.6822 50.2306 31.389 68.0536C22.0958 85.8766 19.3075 106.382 23.5042 126.039C27.7009 145.697 38.62 163.276 54.3814 175.75C70.1428 188.224 89.7602 194.812 109.856 194.38C129.952 193.948 149.268 186.524 164.479 173.384C179.69 160.245 189.844 142.213 193.193 122.394C196.541 102.574 192.875 82.2074 182.825 64.8L201.531 54Z" fill="#00CA54"/>
<path d="M138.1 4.27921C165.608 12.2622 188.819 30.8459 202.625 55.9421L183.7 66.3537C172.655 46.2767 154.087 31.4097 132.08 25.0234L138.1 4.27921Z" fill="#E2E3DD"/>
<circle cx="189.5" cy="54.5" r="16" fill="#00CA54" stroke="#E2E3DD" stroke-width="3"/>
</svg>
