<svg width="35" height="35" viewBox="0 0 35 35" fill="none" xmlns="http://www.w3.org/2000/svg">
<rect width="35" height="35" rx="17.5" fill="#E2E3DD"/>
<path d="M17.5 9.16663C18.605 9.16663 19.6648 9.60561 20.4462 10.387C21.2276 11.1684 21.6666 12.2282 21.6666 13.3333C21.6666 14.4384 21.2276 15.4982 20.4462 16.2796C19.6648 17.061 18.605 17.5 17.5 17.5C16.3949 17.5 15.3351 17.061 14.5537 16.2796C13.7723 15.4982 13.3333 14.4384 13.3333 13.3333C13.3333 12.2282 13.7723 11.1684 14.5537 10.387C15.3351 9.60561 16.3949 9.16663 17.5 9.16663ZM17.5 19.5833C22.1041 19.5833 25.8333 21.4479 25.8333 23.75V25.8333H9.16663V23.75C9.16663 21.4479 12.8958 19.5833 17.5 19.5833Z" fill="#1F1F1F"/>
</svg>
