<svg width="24" height="25" viewBox="0 0 24 25" fill="none" xmlns="http://www.w3.org/2000/svg">
<g clip-path="url(#clip0_970_5428)">
<path d="M23.2777 12.3764C23.2826 11.7278 22.928 11.1297 22.3557 10.8137L9.01915 3.43494C8.42175 3.09507 7.71994 3.13254 7.16089 3.51264C6.59158 3.89913 6.3042 4.82509 6.46766 5.49591L7.73764 10.7031C7.86801 11.2371 8.34734 11.6152 8.8964 11.6159L16.2955 11.6338C16.6744 11.6283 16.9834 11.9373 16.9779 12.3162C16.9788 12.6886 16.6777 12.9897 16.2988 12.9952L8.89262 12.9715C8.34356 12.9695 7.86605 13.3441 7.73827 13.8774L6.48197 19.0914C6.32934 19.7075 6.51064 20.3244 6.94838 20.7621C6.99987 20.8136 7.05781 20.8716 7.11572 20.9167C7.68189 21.3547 8.42053 21.4143 9.04905 21.0819L22.3503 13.9218C22.9211 13.6213 23.2729 13.025 23.2777 12.3764Z" fill="white"/>
</g>
<defs>
<clipPath id="clip0_970_5428">
<rect width="24" height="24" fill="white" transform="translate(0 0.5)"/>
</clipPath>
</defs>
</svg>
