<svg width="30" height="30" viewBox="0 0 30 30" fill="none" xmlns="http://www.w3.org/2000/svg">
<path d="M24.2875 16.2251C24.3375 15.8251 24.375 15.4251 24.375 15.0001C24.375 14.5751 24.3375 14.1751 24.2875 13.7751L26.925 11.7126C27.1625 11.5251 27.225 11.1876 27.075 10.9126L24.575 6.58756C24.5014 6.45859 24.3841 6.36008 24.2444 6.30969C24.1047 6.2593 23.9516 6.26031 23.8125 6.31256L20.7 7.56256C20.05 7.06256 19.35 6.65006 18.5875 6.33756L18.1125 3.02506C18.0919 2.87799 18.0182 2.74351 17.9055 2.64685C17.7927 2.5502 17.6486 2.498 17.5 2.50006H12.5C12.1875 2.50006 11.925 2.72506 11.8875 3.02506L11.4125 6.33756C10.65 6.65006 9.95004 7.07506 9.30004 7.56256L6.18754 6.31256C6.11507 6.28797 6.03908 6.27531 5.96254 6.27506C5.75004 6.27506 5.53754 6.38756 5.42504 6.58756L2.92504 10.9126C2.76254 11.1876 2.83754 11.5251 3.07504 11.7126L5.71254 13.7751C5.66254 14.1751 5.62504 14.5876 5.62504 15.0001C5.62504 15.4126 5.66254 15.8251 5.71254 16.2251L3.07504 18.2876C2.83754 18.4751 2.77504 18.8126 2.92504 19.0876L5.42504 23.4126C5.49873 23.5415 5.61594 23.64 5.75567 23.6904C5.89539 23.7408 6.0485 23.7398 6.18754 23.6876L9.30004 22.4376C9.95004 22.9376 10.65 23.3501 11.4125 23.6626L11.8875 26.9751C11.925 27.2751 12.1875 27.5001 12.5 27.5001H17.5C17.8125 27.5001 18.075 27.2751 18.1125 26.9751L18.5875 23.6626C19.35 23.3501 20.05 22.9251 20.7 22.4376L23.8125 23.6876C23.8875 23.7126 23.9625 23.7251 24.0375 23.7251C24.25 23.7251 24.4625 23.6126 24.575 23.4126L27.075 19.0876C27.225 18.8126 27.1625 18.4751 26.925 18.2876L24.2875 16.2251ZM21.8125 14.0876C21.8625 14.4751 21.875 14.7376 21.875 15.0001C21.875 15.2626 21.85 15.5376 21.8125 15.9126L21.6375 17.3251L22.75 18.2001L24.1 19.2501L23.225 20.7626L21.6375 20.1251L20.3375 19.6001L19.2125 20.4501C18.675 20.8501 18.1625 21.1501 17.65 21.3626L16.325 21.9001L16.125 23.3126L15.875 25.0001H14.125L13.8875 23.3126L13.6875 21.9001L12.3625 21.3626C11.825 21.1376 11.325 20.8501 10.825 20.4751L9.68754 19.6001L8.36254 20.1376L6.77504 20.7751L5.90004 19.2626L7.25004 18.2126L8.36254 17.3376L8.18754 15.9251C8.15004 15.5376 8.12504 15.2501 8.12504 15.0001C8.12504 14.7501 8.15004 14.4626 8.18754 14.0876L8.36254 12.6751L7.25004 11.8001L5.90004 10.7501L6.77504 9.23756L8.36254 9.87506L9.66254 10.4001L10.7875 9.55006C11.325 9.15006 11.8375 8.85006 12.35 8.63756L13.675 8.10006L13.875 6.68756L14.125 5.00006H15.8625L16.1 6.68756L16.3 8.10006L17.625 8.63756C18.1625 8.86256 18.6625 9.15006 19.1625 9.52506L20.3 10.4001L21.625 9.86256L23.2125 9.22506L24.0875 10.7376L22.75 11.8001L21.6375 12.6751L21.8125 14.0876ZM15 10.0001C12.2375 10.0001 10 12.2376 10 15.0001C10 17.7626 12.2375 20.0001 15 20.0001C17.7625 20.0001 20 17.7626 20 15.0001C20 12.2376 17.7625 10.0001 15 10.0001ZM15 17.5001C13.625 17.5001 12.5 16.3751 12.5 15.0001C12.5 13.6251 13.625 12.5001 15 12.5001C16.375 12.5001 17.5 13.6251 17.5 15.0001C17.5 16.3751 16.375 17.5001 15 17.5001Z" fill="white"/>
</svg>
