<svg width="20" height="20" viewBox="0 0 20 20" fill="none" xmlns="http://www.w3.org/2000/svg">
<g id="streamline:shopping-bag-suitcase-1-product-business-briefcase" clip-path="url(#clip0_954_2296)">
<g id="Group">
<path id="Vector" d="M17.8572 5H2.14293C1.35395 5 0.714355 5.63959 0.714355 6.42857V17.8571C0.714355 18.6461 1.35395 19.2857 2.14293 19.2857H17.8572C18.6462 19.2857 19.2858 18.6461 19.2858 17.8571V6.42857C19.2858 5.63959 18.6462 5 17.8572 5Z" stroke="#00CA54" stroke-width="2" stroke-linecap="round" stroke-linejoin="round"/>
<path id="Vector_2" d="M5 9.99995H15M5 14.2857H15M7.14286 0.714233H12.8571C13.236 0.714233 13.5994 0.864743 13.8673 1.13265C14.1352 1.40056 14.2857 1.76392 14.2857 2.1428V4.99995H5.71429V2.1428C5.71429 1.76392 5.8648 1.40056 6.1327 1.13265C6.40061 0.864743 6.76398 0.714233 7.14286 0.714233Z" stroke="#00CA54" stroke-width="2" stroke-linecap="round" stroke-linejoin="round"/>
</g>
</g>
<defs>
<clipPath id="clip0_954_2296">
<rect width="20" height="20" fill="white"/>
</clipPath>
</defs>
</svg>
