<svg width="25" height="25" viewBox="0 0 25 25" fill="none" xmlns="http://www.w3.org/2000/svg">
<g clip-path="url(#clip0_923_555)">
<path fill-rule="evenodd" clip-rule="evenodd" d="M11.375 2.98756C11.4896 2.79085 11.6538 2.62764 11.8512 2.5142C12.0486 2.40076 12.2723 2.34106 12.5 2.34106C12.7276 2.34106 12.9513 2.40076 13.1487 2.5142C13.3461 2.62764 13.5103 2.79085 13.625 2.98756L16.5364 7.98548L22.1906 9.21048C22.413 9.25881 22.6188 9.36459 22.7876 9.51728C22.9564 9.66997 23.0822 9.86424 23.1525 10.0807C23.2228 10.2972 23.2351 10.5283 23.1883 10.751C23.1414 10.9737 23.037 11.1803 22.8854 11.3501L19.0312 15.6636L19.6145 21.4188C19.6375 21.6454 19.6007 21.8741 19.5077 22.0821C19.4147 22.29 19.2687 22.4699 19.0845 22.6038C18.9002 22.7377 18.684 22.8209 18.4575 22.8451C18.231 22.8693 18.0021 22.8336 17.7937 22.7417L12.5 20.4084L7.2062 22.7417C6.99779 22.8336 6.7689 22.8693 6.54241 22.8451C6.31591 22.8209 6.09973 22.7377 5.91545 22.6038C5.73116 22.4699 5.58523 22.29 5.49221 22.0821C5.3992 21.8741 5.36236 21.6454 5.38537 21.4188L5.9687 15.6636L2.11454 11.3511C1.96269 11.1813 1.85803 10.9747 1.81101 10.7519C1.76399 10.529 1.77625 10.2977 1.84656 10.0811C1.91688 9.86441 2.04279 9.67001 2.21173 9.51725C2.38067 9.36448 2.58673 9.25871 2.80933 9.21048L8.4635 7.98548L11.375 2.98756ZM12.5 5.19485L10.0906 9.33235C9.99948 9.48852 9.87685 9.624 9.7305 9.73018C9.58416 9.83635 9.41731 9.91088 9.24058 9.94902L4.56141 10.9626L7.751 14.5324C7.99475 14.8053 8.11245 15.1678 8.076 15.5313L7.5937 20.2949L11.975 18.3636C12.1404 18.2907 12.3192 18.2531 12.5 18.2531C12.6807 18.2531 12.8595 18.2907 13.025 18.3636L17.4062 20.2949L16.9239 15.5313C16.9056 15.3514 16.9249 15.1697 16.9807 14.9977C17.0365 14.8257 17.1275 14.6672 17.2479 14.5324L20.4385 10.9626L15.7593 9.94902C15.5826 9.91088 15.4157 9.83635 15.2694 9.73018C15.1231 9.624 15.0004 9.48852 14.9093 9.33235L12.5 5.19485Z" fill="#FCA825"/>
</g>
<defs>
<clipPath id="clip0_923_555">
<rect width="25" height="25" fill="white"/>
</clipPath>
</defs>
</svg>
