<svg width="25" height="25" viewBox="0 0 25 25" fill="none" xmlns="http://www.w3.org/2000/svg">
<g clip-path="url(#clip0_923_551)">
<path d="M11.375 2.98756C11.4896 2.79085 11.6538 2.62764 11.8512 2.5142C12.0486 2.40076 12.2723 2.34106 12.5 2.34106C12.7276 2.34106 12.9513 2.40076 13.1487 2.5142C13.3461 2.62764 13.5103 2.79085 13.625 2.98756L16.5364 7.98548L22.1906 9.21048C22.413 9.25881 22.6188 9.36459 22.7876 9.51728C22.9564 9.66997 23.0822 9.86424 23.1525 10.0807C23.2228 10.2972 23.2351 10.5283 23.1883 10.751C23.1414 10.9737 23.037 11.1803 22.8854 11.3501L19.0312 15.6636L19.6145 21.4188C19.6375 21.6454 19.6007 21.8741 19.5077 22.0821C19.4147 22.29 19.2687 22.4699 19.0845 22.6038C18.9002 22.7377 18.684 22.8209 18.4575 22.8451C18.231 22.8693 18.0021 22.8336 17.7937 22.7417L12.5 20.4084L7.2062 22.7417C6.99779 22.8336 6.7689 22.8693 6.54241 22.8451C6.31591 22.8209 6.09973 22.7377 5.91545 22.6038C5.73116 22.4699 5.58523 22.29 5.49221 22.0821C5.3992 21.8741 5.36236 21.6454 5.38537 21.4188L5.9687 15.6636L2.11454 11.3511C1.96269 11.1813 1.85803 10.9747 1.81101 10.7519C1.76399 10.529 1.77625 10.2977 1.84656 10.0811C1.91688 9.86441 2.04279 9.67001 2.21173 9.51725C2.38067 9.36448 2.58673 9.25871 2.80933 9.21048L8.4635 7.98548L11.375 2.98756Z" fill="#FCA825"/>
</g>
<defs>
<clipPath id="clip0_923_551">
<rect width="25" height="25" fill="white"/>
</clipPath>
</defs>
</svg>
