<svg width="52" height="52" viewBox="0 0 52 52" fill="none" xmlns="http://www.w3.org/2000/svg">
<rect width="52" height="52" rx="26" fill="#E2E3DD"/>
<path d="M25.5 13.8334C27.0471 13.8334 28.5309 14.448 29.6248 15.5419C30.7188 16.6359 31.3334 18.1196 31.3334 19.6667C31.3334 21.2138 30.7188 22.6975 29.6248 23.7915C28.5309 24.8855 27.0471 25.5 25.5 25.5C23.9529 25.5 22.4692 24.8855 21.3753 23.7915C20.2813 22.6975 19.6667 21.2138 19.6667 19.6667C19.6667 18.1196 20.2813 16.6359 21.3753 15.5419C22.4692 14.448 23.9529 13.8334 25.5 13.8334ZM25.5 28.4167C31.9459 28.4167 37.1667 31.0271 37.1667 34.25V37.1667H13.8334V34.25C13.8334 31.0271 19.0542 28.4167 25.5 28.4167Z" fill="#1F1F1F"/>
</svg>
