<svg width="20" height="20" viewBox="0 0 20 20" fill="none" xmlns="http://www.w3.org/2000/svg">
<g id="material-symbols:production-quantity-limits">
<path id="Vector" d="M5.8335 18.3333C5.37516 18.3333 4.98266 18.1699 4.656 17.8433C4.32933 17.5166 4.16627 17.1244 4.16683 16.6666C4.16683 16.2083 4.33016 15.8158 4.65683 15.4891C4.9835 15.1624 5.37572 14.9994 5.8335 14.9999C6.29183 14.9999 6.68433 15.1633 7.011 15.4899C7.33766 15.8166 7.50072 16.2088 7.50016 16.6666C7.50016 17.1249 7.33683 17.5174 7.01016 17.8441C6.6835 18.1708 6.29127 18.3338 5.8335 18.3333ZM14.1668 18.3333C13.7085 18.3333 13.316 18.1699 12.9893 17.8433C12.6627 17.5166 12.4996 17.1244 12.5002 16.6666C12.5002 16.2083 12.6635 15.8158 12.9902 15.4891C13.3168 15.1624 13.7091 14.9994 14.1668 14.9999C14.6252 14.9999 15.0177 15.1633 15.3443 15.4899C15.671 15.8166 15.8341 16.2088 15.8335 16.6666C15.8335 17.1249 15.6702 17.5174 15.3435 17.8441C15.0168 18.1708 14.6246 18.3338 14.1668 18.3333ZM10.0002 7.91659C9.76405 7.91659 9.566 7.83659 9.406 7.67659C9.24599 7.51659 9.16627 7.31881 9.16683 7.08325C9.16683 6.84714 9.24683 6.64909 9.40683 6.48909C9.56683 6.32909 9.76461 6.24936 10.0002 6.24992C10.2363 6.24992 10.4343 6.32992 10.5943 6.48992C10.7543 6.64992 10.8341 6.8477 10.8335 7.08325C10.8335 7.31936 10.7535 7.51742 10.5935 7.67742C10.4335 7.83742 10.2357 7.91714 10.0002 7.91659ZM9.16683 4.99992V0.833252H10.8335V4.99992H9.16683ZM5.8335 14.1666C5.2085 14.1666 4.72933 13.8921 4.396 13.3433C4.06266 12.7944 4.05572 12.2494 4.37516 11.7083L5.50016 9.66659L2.50016 3.33325H0.833496V1.66659H3.56266L7.10433 9.16659H12.9585L16.1877 3.33325L17.646 4.12492L14.4168 9.95825C14.264 10.236 14.0627 10.4513 13.8127 10.6041C13.5627 10.7569 13.2779 10.8333 12.9585 10.8333H6.75016L5.8335 12.4999H15.8335V14.1666H5.8335Z" fill="#00CA54"/>
</g>
</svg>
