<svg width="30" height="30" viewBox="0 0 30 30" fill="none" xmlns="http://www.w3.org/2000/svg">
<path d="M8.75 27.5C8.0625 27.5 7.47375 27.255 6.98375 26.765C6.49375 26.275 6.24917 25.6867 6.25 25C6.25 24.3125 6.495 23.7237 6.985 23.2337C7.475 22.7437 8.06333 22.4992 8.75 22.5C9.4375 22.5 10.0262 22.745 10.5163 23.235C11.0063 23.725 11.2508 24.3133 11.25 25C11.25 25.6875 11.005 26.2763 10.515 26.7663C10.025 27.2563 9.43667 27.5008 8.75 27.5ZM21.25 27.5C20.5625 27.5 19.9737 27.255 19.4837 26.765C18.9937 26.275 18.7492 25.6867 18.75 25C18.75 24.3125 18.995 23.7237 19.485 23.2337C19.975 22.7437 20.5633 22.4992 21.25 22.5C21.9375 22.5 22.5263 22.745 23.0163 23.235C23.5063 23.725 23.7508 24.3133 23.75 25C23.75 25.6875 23.505 26.2763 23.015 26.7663C22.525 27.2563 21.9367 27.5008 21.25 27.5ZM15 11.875C14.6458 11.875 14.3487 11.755 14.1087 11.515C13.8687 11.275 13.7492 10.9783 13.75 10.625C13.75 10.2708 13.87 9.97375 14.11 9.73375C14.35 9.49375 14.6467 9.37417 15 9.375C15.3542 9.375 15.6513 9.495 15.8913 9.735C16.1313 9.975 16.2508 10.2717 16.25 10.625C16.25 10.9792 16.13 11.2763 15.89 11.5163C15.65 11.7563 15.3533 11.8758 15 11.875ZM13.75 7.5V1.25H16.25V7.5H13.75ZM8.75 21.25C7.8125 21.25 7.09375 20.8383 6.59375 20.015C6.09375 19.1917 6.08333 18.3742 6.5625 17.5625L8.25 14.5L3.75 5H1.25V2.5H5.34375L10.6562 13.75H19.4375L24.2812 5L26.4688 6.1875L21.625 14.9375C21.3958 15.3542 21.0938 15.6771 20.7188 15.9062C20.3438 16.1354 19.9167 16.25 19.4375 16.25H10.125L8.75 18.75H23.75V21.25H8.75Z" fill="#3A3C38"/>
</svg>
